<svg id="visual" viewBox="0 0 900 600" width="900" height="600" xmlns="http://www.w3.org/2000/svg" xmlns:xlink="http://www.w3.org/1999/xlink" version="1.1"><path d="M0 392L21.5 385.8C43 379.7 86 367.3 128.8 369.5C171.7 371.7 214.3 388.3 257.2 394.7C300 401 343 397 385.8 401.5C428.7 406 471.3 419 514.2 419.7C557 420.3 600 408.7 642.8 400.5C685.7 392.3 728.3 387.7 771.2 383.3C814 379 857 375 878.5 373L900 371L900 601L878.5 601C857 601 814 601 771.2 601C728.3 601 685.7 601 642.8 601C600 601 557 601 514.2 601C471.3 601 428.7 601 385.8 601C343 601 300 601 257.2 601C214.3 601 171.7 601 128.8 601C86 601 43 601 21.5 601L0 601Z" fill="#000000"></path><path d="M0 426L21.5 432.5C43 439 86 452 128.8 453.3C171.7 454.7 214.3 444.3 257.2 432.5C300 420.7 343 407.3 385.8 414.8C428.7 422.3 471.3 450.7 514.2 455.8C557 461 600 443 642.8 438.2C685.7 433.3 728.3 441.7 771.2 447.8C814 454 857 458 878.5 460L900 462L900 601L878.5 601C857 601 814 601 771.2 601C728.3 601 685.7 601 642.8 601C600 601 557 601 514.2 601C471.3 601 428.7 601 385.8 601C343 601 300 601 257.2 601C214.3 601 171.7 601 128.8 601C86 601 43 601 21.5 601L0 601Z" fill="#03002c"></path><path d="M0 446L21.5 453.5C43 461 86 476 128.8 477.7C171.7 479.3 214.3 467.7 257.2 462.2C300 456.7 343 457.3 385.8 463.3C428.7 469.3 471.3 480.7 514.2 480.8C557 481 600 470 642.8 467.2C685.7 464.3 728.3 469.7 771.2 472.5C814 475.3 857 475.7 878.5 475.8L900 476L900 601L878.5 601C857 601 814 601 771.2 601C728.3 601 685.7 601 642.8 601C600 601 557 601 514.2 601C471.3 601 428.7 601 385.8 601C343 601 300 601 257.2 601C214.3 601 171.7 601 128.8 601C86 601 43 601 21.5 601L0 601Z" fill="#060630"></path><path d="M0 499L21.5 503C43 507 86 515 128.8 513.2C171.7 511.3 214.3 499.7 257.2 493.3C300 487 343 486 385.8 494.8C428.7 503.7 471.3 522.3 514.2 524.5C557 526.7 600 512.3 642.8 508.7C685.7 505 728.3 512 771.2 514.7C814 517.3 857 515.7 878.5 514.8L900 514L900 601L878.5 601C857 601 814 601 771.2 601C728.3 601 685.7 601 642.8 601C600 601 557 601 514.2 601C471.3 601 428.7 601 385.8 601C343 601 300 601 257.2 601C214.3 601 171.7 601 128.8 601C86 601 43 601 21.5 601L0 601Z" fill="#090c34"></path><path d="M0 573L21.5 566.8C43 560.7 86 548.3 128.8 544.7C171.7 541 214.3 546 257.2 551.8C300 557.7 343 564.3 385.8 562.8C428.7 561.3 471.3 551.7 514.2 546.3C557 541 600 540 642.8 537.5C685.7 535 728.3 531 771.2 535.2C814 539.3 857 551.7 878.5 557.8L900 564L900 601L878.5 601C857 601 814 601 771.2 601C728.3 601 685.7 601 642.8 601C600 601 557 601 514.2 601C471.3 601 428.7 601 385.8 601C343 601 300 601 257.2 601C214.3 601 171.7 601 128.8 601C86 601 43 601 21.5 601L0 601Z" fill="#0c1138"></path></svg>