<svg xmlns="http://www.w3.org/2000/svg" version="1.1" xmlns:xlink="http://www.w3.org/1999/xlink" xmlns:svgjs="http://svgjs.com/svgjs" width="1440" height="4000" preserveAspectRatio="none" viewBox="0 0 1440 4000"><g mask="url(&quot;#SvgjsMask2490&quot;)" fill="none"><rect width="1440" height="4000" x="0" y="0" fill="url(#SvgjsLinearGradient2491)"></rect><path d="M458 1302L457 2800" stroke-width="6" stroke="url(#SvgjsLinearGradient2492)" stroke-linecap="round" class="Down"></path><path d="M47 206L46 -2533" stroke-width="6" stroke="url(#SvgjsLinearGradient2492)" stroke-linecap="round" class="Down"></path><path d="M921 3887L920 1967" stroke-width="10" stroke="url(#SvgjsLinearGradient2492)" stroke-linecap="round" class="Down"></path><path d="M1141 1702L1140 3397" stroke-width="10" stroke="url(#SvgjsLinearGradient2493)" stroke-linecap="round" class="Up"></path><path d="M1372 706L1371 2604" stroke-width="6" stroke="url(#SvgjsLinearGradient2492)" stroke-linecap="round" class="Down"></path><path d="M120 2763L119 1581" stroke-width="6" stroke="url(#SvgjsLinearGradient2492)" stroke-linecap="round" class="Down"></path><path d="M735 1544L734 -589" stroke-width="10" stroke="url(#SvgjsLinearGradient2493)" stroke-linecap="round" class="Up"></path><path d="M1340 3526L1339 1813" stroke-width="10" stroke="url(#SvgjsLinearGradient2493)" stroke-linecap="round" class="Up"></path><path d="M695 2621L694 1105" stroke-width="8" stroke="url(#SvgjsLinearGradient2493)" stroke-linecap="round" class="Up"></path><path d="M617 517L616 -2273" stroke-width="6" stroke="url(#SvgjsLinearGradient2492)" stroke-linecap="round" class="Down"></path><path d="M444 3115L443 4174" stroke-width="8" stroke="url(#SvgjsLinearGradient2493)" stroke-linecap="round" class="Up"></path><path d="M449 2612L448 199" stroke-width="6" stroke="url(#SvgjsLinearGradient2493)" stroke-linecap="round" class="Up"></path><path d="M838 168L837 -1620" stroke-width="8" stroke="url(#SvgjsLinearGradient2493)" stroke-linecap="round" class="Up"></path><path d="M705 2130L704 -849" stroke-width="10" stroke="url(#SvgjsLinearGradient2493)" stroke-linecap="round" class="Up"></path><path d="M1275 89L1274 -1968" stroke-width="8" stroke="url(#SvgjsLinearGradient2492)" stroke-linecap="round" class="Down"></path><path d="M816 854L815 2043" stroke-width="8" stroke="url(#SvgjsLinearGradient2493)" stroke-linecap="round" class="Up"></path><path d="M508 3897L507 6289" stroke-width="10" stroke="url(#SvgjsLinearGradient2492)" stroke-linecap="round" class="Down"></path><path d="M1082 1223L1081 3255" stroke-width="8" stroke="url(#SvgjsLinearGradient2493)" stroke-linecap="round" class="Up"></path><path d="M1240 1157L1239 -839" stroke-width="6" stroke="url(#SvgjsLinearGradient2493)" stroke-linecap="round" class="Up"></path><path d="M1419 1236L1418 2671" stroke-width="8" stroke="url(#SvgjsLinearGradient2493)" stroke-linecap="round" class="Up"></path><path d="M610 430L609 -2477" stroke-width="10" stroke="url(#SvgjsLinearGradient2492)" stroke-linecap="round" class="Down"></path><path d="M47 468L46 -1387" stroke-width="10" stroke="url(#SvgjsLinearGradient2493)" stroke-linecap="round" class="Up"></path><path d="M1135 494L1134 -1888" stroke-width="8" stroke="url(#SvgjsLinearGradient2493)" stroke-linecap="round" class="Up"></path><path d="M994 112L993 -1691" stroke-width="8" stroke="url(#SvgjsLinearGradient2492)" stroke-linecap="round" class="Down"></path><path d="M78 325L77 2382" stroke-width="6" stroke="url(#SvgjsLinearGradient2493)" stroke-linecap="round" class="Up"></path><path d="M1320 1261L1319 2739" stroke-width="8" stroke="url(#SvgjsLinearGradient2492)" stroke-linecap="round" class="Down"></path><path d="M751 3938L750 1061" stroke-width="8" stroke="url(#SvgjsLinearGradient2493)" stroke-linecap="round" class="Up"></path><path d="M1282 3345L1281 560" stroke-width="10" stroke="url(#SvgjsLinearGradient2492)" stroke-linecap="round" class="Down"></path><path d="M1385 571L1384 2620" stroke-width="10" stroke="url(#SvgjsLinearGradient2493)" stroke-linecap="round" class="Up"></path><path d="M250 3252L249 783" stroke-width="6" stroke="url(#SvgjsLinearGradient2492)" stroke-linecap="round" class="Down"></path><path d="M409 2457L408 4395" stroke-width="8" stroke="url(#SvgjsLinearGradient2492)" stroke-linecap="round" class="Down"></path><path d="M1131 1118L1130 2949" stroke-width="8" stroke="url(#SvgjsLinearGradient2493)" stroke-linecap="round" class="Up"></path><path d="M155 2674L154 3939" stroke-width="6" stroke="url(#SvgjsLinearGradient2493)" stroke-linecap="round" class="Up"></path><path d="M671 679L670 2952" stroke-width="8" stroke="url(#SvgjsLinearGradient2493)" stroke-linecap="round" class="Up"></path><path d="M727 1866L726 722" stroke-width="8" stroke="url(#SvgjsLinearGradient2492)" stroke-linecap="round" class="Down"></path><path d="M200 257L199 -903" stroke-width="10" stroke="url(#SvgjsLinearGradient2493)" stroke-linecap="round" class="Up"></path></g><defs><mask id="SvgjsMask2490"><rect width="1440" height="4000" fill="#ffffff"></rect></mask><linearGradient x1="50%" y1="0%" x2="50%" y2="100%" gradientUnits="userSpaceOnUse" id="SvgjsLinearGradient2491"><stop stop-color="rgba(14, 42, 71, 1)" offset="0"></stop><stop stop-color="rgba(16, 16, 17, 1)" offset="0.17"></stop></linearGradient><linearGradient x1="0%" y1="0%" x2="0%" y2="100%" id="SvgjsLinearGradient2492"><stop stop-color="rgba(79, 84, 90, 0)" offset="0"></stop><stop stop-color="rgba(79, 84, 90, 1)" offset="1"></stop></linearGradient><linearGradient x1="0%" y1="100%" x2="0%" y2="0%" id="SvgjsLinearGradient2493"><stop stop-color="rgba(79, 84, 90, 0)" offset="0"></stop><stop stop-color="rgba(79, 84, 90, 1)" offset="1"></stop></linearGradient></defs></svg>