<svg xmlns="http://www.w3.org/2000/svg" version="1.1" xmlns:xlink="http://www.w3.org/1999/xlink" xmlns:svgjs="http://svgjs.com/svgjs" width="1440" height="800" preserveAspectRatio="none" viewBox="0 0 1440 800"><g mask="url(&quot;#SvgjsMask2934&quot;)" fill="none"><rect width="1440" height="800" x="0" y="0" fill="url(#SvgjsLinearGradient2935)"></rect><path d="M7 800L807 0L931.5 0L131.5 800z" fill="url(#SvgjsLinearGradient2936)"></path><path d="M493.20000000000005 800L1293.2 0L1572.2 0L772.2 800z" fill="url(#SvgjsLinearGradient2936)"></path><path d="M1358 800L558 0L136.5 0L936.5 800z" fill="url(#SvgjsLinearGradient2937)"></path><path d="M934.8 800L134.79999999999995 0L-208.70000000000005 0L591.3 800z" fill="url(#SvgjsLinearGradient2937)"></path><path d="M1006.5628806320216 800L1440 366.5628806320216L1440 800z" fill="url(#SvgjsLinearGradient2936)"></path><path d="M0 800L433.4371193679784 800L 0 366.5628806320216z" fill="url(#SvgjsLinearGradient2937)"></path></g><defs><mask id="SvgjsMask2934"><rect width="1440" height="800" fill="#ffffff"></rect></mask><linearGradient x1="50%" y1="0%" x2="50%" y2="100%" gradientUnits="userSpaceOnUse" id="SvgjsLinearGradient2935"><stop stop-color="rgba(14, 42, 71, 1)" offset="0"></stop><stop stop-color="rgba(9, 9, 10, 1)" offset="1"></stop></linearGradient><linearGradient x1="0%" y1="100%" x2="100%" y2="0%" id="SvgjsLinearGradient2936"><stop stop-color="rgba(9, 5, 56, 0.9)" offset="0"></stop><stop stop-opacity="0" stop-color="rgba(9, 5, 56, 0.9)" offset="0.66"></stop></linearGradient><linearGradient x1="100%" y1="100%" x2="0%" y2="0%" id="SvgjsLinearGradient2937"><stop stop-color="rgba(9, 5, 56, 0.9)" offset="0"></stop><stop stop-opacity="0" stop-color="rgba(9, 5, 56, 0.9)" offset="0.66"></stop></linearGradient></defs></svg>