<svg xmlns="http://www.w3.org/2000/svg" version="1.1" xmlns:xlink="http://www.w3.org/1999/xlink" xmlns:svgjs="http://svgjs.com/svgjs" width="1440" height="560" preserveAspectRatio="none" viewBox="0 0 1440 560"><g mask="url(&quot;#SvgjsMask3122&quot;)" fill="none"><rect width="1440" height="560" x="0" y="0" fill="url(#SvgjsLinearGradient3123)"></rect><path d="M1440 0L877.65 0L1440 165.98z" fill="rgba(255, 255, 255, .1)"></path><path d="M877.65 0L1440 165.98L1440 226.14999999999998L505.75 0z" fill="rgba(255, 255, 255, .075)"></path><path d="M505.75 0L1440 226.14999999999998L1440 370.59L500.32 0z" fill="rgba(255, 255, 255, .05)"></path><path d="M500.32000000000005 0L1440 370.59L1440 425.54999999999995L297.00000000000006 0z" fill="rgba(255, 255, 255, .025)"></path><path d="M0 560L531.63 560L0 451.33z" fill="rgba(0, 0, 0, .1)"></path><path d="M0 451.33L531.63 560L1005.23 560L0 307.1z" fill="rgba(0, 0, 0, .075)"></path><path d="M0 307.1L1005.23 560L1147.08 560L0 132.06000000000003z" fill="rgba(0, 0, 0, .05)"></path><path d="M0 132.06000000000006L1147.08 560L1230.08 560L0 123.83000000000006z" fill="rgba(0, 0, 0, .025)"></path></g><defs><mask id="SvgjsMask3122"><rect width="1440" height="560" fill="#ffffff"></rect></mask><linearGradient x1="50%" y1="100%" x2="50%" y2="0%" gradientUnits="userSpaceOnUse" id="SvgjsLinearGradient3123"><stop stop-color="rgba(72, 72, 73, 1)" offset="0.72"></stop><stop stop-color="rgba(80, 88, 96, 1)" offset="1"></stop></linearGradient></defs></svg>